<svg height="512pt" viewBox="0 0 512 512" width="512pt" xmlns="http://www.w3.org/2000/svg"><path d="m91 417.296875 96.527344-19.304687c7.871094 13.117187 22.089844 22.007812 38.472656 22.007812 24.8125 0 45-20.1875 45-45s-20.1875-45-45-45c-.609375 0-1.171875.15625-1.773438.179688l-23.238281-58.085938 181.574219 61.4375 41.960938-124.015625-34.839844 9.332031-1.890625 5.609375c-12.542969 37.035157-50.585938 62.058594-123.503907 37.382813l-241.539062-81.714844-9.605469 28.410156 150.46875 50.914063 32.777344 81.933593c-7.824219 6.898438-13.175781 16.390626-14.742187 27.191407l-90.648438 18.128906v-116.703125h-91v242h91zm0 0"/><path d="m32.789062 56.839844 373.726563 126.4375 105.484375-27.988282-459.980469-155.289062zm0 0"/><path d="m359.375 214.835938 4.808594-14.210938-341.007813-115.371094-19.230469 56.835938 269.96875 91.332031c34.433594 11.65625 73.773438 15.960937 85.460938-18.585937zm0 0"/></svg>