<svg height="512pt" viewBox="-61 0 512 512" width="512pt" xmlns="http://www.w3.org/2000/svg"><path d="m195 30c36.300781 0 66.597656 25.800781 73.5 60h30.300781c-7.203125-50.699219-51-90-103.800781-90s-96.597656 39.300781-103.800781 90h30.300781c6.902344-34.199219 37.199219-60 73.5-60zm0 0"/><path d="m120 241h30v30h-30zm0 0"/><path d="m120 361h30v30h-30zm0 0"/><path d="m300 105v45h-30v-45c0-5.097656-.601562-10.199219-1.5-15h-147c-.898438 4.800781-1.5 9.902344-1.5 15v45h-30v-45c0-5.097656.300781-10.199219 1.199219-15h-91.199219v422h390v-422h-91.199219c.898438 4.800781 1.199219 9.902344 1.199219 15zm-210 106h90v90h-90zm150 210h-150v-90h90v60h60zm0-60h-30v-30h30zm60 60h-30v-90h30zm0-120h-90v-90h90zm0 0"/><path d="m240 241h30v30h-30zm0 0"/></svg>