<svg height="512pt" viewBox="0 0 512 512" width="512pt" xmlns="http://www.w3.org/2000/svg"><path d="m271 256c0-8.277344-6.722656-15-15-15s-15 6.722656-15 15 6.722656 15 15 15 15-6.722656 15-15zm0 0"/><path d="m331 109.164062v-109.164062h-60v61h-30v-61h-60v109.164062c-30.96875 15.820313-56.015625 40.867188-71.835938 71.835938h-109.164062v60h61v30h-61v60h109.164062c15.820313 30.96875 40.867188 56.015625 71.835938 71.835938v109.164062h60v-61h30v61h60v-109.164062c30.96875-15.820313 56.015625-40.867188 71.835938-71.835938h109.164062v-60h-61v-30h61v-60h-109.164062c-15.820313-30.96875-40.867188-56.015625-71.835938-71.835938zm-90-18.164062h30v60h-30zm-59.222656 90.746094c9.59375-9.625 20.8125-17.195313 33.339844-22.484375l11.6875 27.628906c-8.9375 3.777344-16.949219 9.183594-23.816407 16.066406-6.914062 6.898438-12.320312 14.914063-16.101562 23.847657l-27.625-11.6875c5.289062-12.523438 12.859375-23.746094 22.515625-33.371094zm-30.777344 89.253906h-60v-30h60zm64.117188 81.738281c-12.523438-5.289062-23.746094-12.859375-33.371094-22.515625-9.625-9.59375-17.195313-20.816406-22.484375-33.339844l27.628906-11.6875c3.777344 8.933594 9.183594 16.945313 16.066406 23.816407 6.898438 6.914062 14.914063 12.320312 23.847657 16.097656zm-4.117188-96.738281c0-24.8125 20.1875-45 45-45s45 20.1875 45 45-20.1875 45-45 45-45-20.1875-45-45zm60 165h-30v-60h30zm59.222656-90.746094c-9.59375 9.625-20.8125 17.195313-33.339844 22.484375l-11.6875-27.628906c8.9375-3.777344 16.949219-9.183594 23.816407-16.066406 6.914062-6.898438 12.320312-14.914063 16.101562-23.847657l27.625 11.6875c-5.289062 12.523438-12.859375 23.746094-22.515625 33.371094zm-5.113281-103.449218c-3.777344-8.933594-9.183594-16.945313-16.066406-23.816407-6.898438-6.914062-14.914063-12.320312-23.847657-16.097656l11.6875-27.628906c12.523438 5.289062 23.746094 12.859375 33.371094 22.515625 9.621094 9.59375 17.195313 20.816406 22.484375 33.339844zm95.890625 44.195312h-60v-30h60zm0 0"/></svg>